<?xml version="1.0" encoding="UTF-8" standalone="no"?>
<!-- Created with Inkscape (http://www.inkscape.org/) -->

<svg
   width="141.9359mm"
   height="116.57993mm"
   viewBox="0 0 141.9359 116.57993"
   version="1.1"
   id="svg5"
   inkscape:version="1.4.1 (93de688d07, 2025-03-30)"
   xml:space="preserve"
   sodipodi:docname="logo-v1.svg"
   xmlns:inkscape="http://www.inkscape.org/namespaces/inkscape"
   xmlns:sodipodi="http://sodipodi.sourceforge.net/DTD/sodipodi-0.dtd"
   xmlns="http://www.w3.org/2000/svg"
   xmlns:svg="http://www.w3.org/2000/svg"><sodipodi:namedview
     id="namedview7"
     pagecolor="#ffffff"
     bordercolor="#1b1c21"
     borderopacity="0.74901961"
     inkscape:showpageshadow="true"
     inkscape:pageopacity="1"
     inkscape:pagecheckerboard="true"
     inkscape:deskcolor="#424450"
     inkscape:document-units="mm"
     showgrid="true"
     shape-rendering="auto"
     inkscape:zoom="1.1893044"
     inkscape:cx="-2.9428967"
     inkscape:cy="184.98208"
     inkscape:window-width="2536"
     inkscape:window-height="1376"
     inkscape:window-x="0"
     inkscape:window-y="0"
     inkscape:window-maximized="0"
     inkscape:current-layer="layer1"><inkscape:grid
       id="grid1"
       units="mm"
       originx="-2.3019112"
       originy="-12.235794"
       spacingx="0.26458334"
       spacingy="0.26458333"
       empcolor="#0099e5"
       empopacity="0.30196078"
       color="#0099e5"
       opacity="0.14901961"
       empspacing="5"
       enabled="true"
       visible="true" /></sodipodi:namedview><defs
     id="defs2" /><g
     inkscape:label="Layer 1"
     inkscape:groupmode="layer"
     id="layer1"
     transform="translate(-23.284167,-28.428001)"><g
       id="g2"
       transform="matrix(0.95038431,0,0,0.95038431,4.6763824,-5.7556631)"><path
         style="fill:#2e4259;fill-opacity:1;stroke-width:0.639229"
         d="m 137.83411,155.13927 c -0.21916,-0.13849 -0.26521,-1.50231 -0.33826,-10.01832 l -0.0846,-9.858 -1.35303,-0.0208 c -4.418,-0.0681 -4.14367,0.0665 -4.14367,-2.0319 0,-2.31418 -0.812,-2.09091 7.60469,-2.09091 6.36952,0 7.28695,0.0324 7.5203,0.26577 0.20125,0.20125 0.26515,0.62212 0.26318,1.73357 -9.7e-4,0.8073 -0.0746,1.58197 -0.16253,1.7215 -0.12613,0.2001 -0.68829,0.27155 -2.66119,0.33825 l -2.50126,0.0846 -0.0384,9.80894 c -0.0355,9.04147 -0.0611,9.82554 -0.3283,10.02091 -0.34524,0.25244 -3.39167,0.28992 -3.77694,0.0465 z"
         id="path34" /><path
         style="fill:#2e4259;fill-opacity:1;stroke-width:0.639229"
         d="m 107.16336,154.99547 c -0.25472,-0.28146 -0.27991,-1.35136 -0.27991,-11.88979 0,-8.78154 0.049,-11.62954 0.20296,-11.78344 0.13383,-0.13384 0.85184,-0.20296 2.10817,-0.20296 1.71052,0 1.92309,0.0334 2.08028,0.32714 0.11577,0.2163 0.17508,4.22405 0.17508,11.82946 v 11.50231 l -0.37589,0.26328 c -0.27698,0.19402 -0.80409,0.26329 -2.00334,0.26329 -1.36184,0 -1.67313,-0.0505 -1.90735,-0.30929 z"
         id="path33" /><path
         style="fill:#2e4259;fill-opacity:1;stroke-width:0.639229"
         d="m 92.370503,155.00874 c -0.276779,-0.23845 -0.860549,-2.52858 -3.003077,-11.78118 -1.941897,-8.38614 -2.613781,-11.55785 -2.490024,-11.75448 0.231759,-0.36822 3.954618,-0.48864 4.246164,-0.13735 0.103523,0.12475 1.031088,4.29398 2.061257,9.26498 1.030168,4.97099 1.92234,9.19038 1.982606,9.37643 0.141806,0.43777 0.164109,0.341 2.260606,-9.8095 0.941424,-4.55803 1.81945,-8.45857 1.951169,-8.66787 0.225623,-0.35851 0.351531,-0.38054 2.174626,-0.38054 2.25197,0 2.38106,0.084 2.09693,1.36383 -0.41406,1.86504 -5.244181,22.00153 -5.33302,22.23305 -0.187965,0.48983 -0.718072,0.5886 -3.158915,0.5886 -2.084704,0 -2.495351,-0.0436 -2.788322,-0.29597 z"
         id="path32" /><path
         style="fill:#2e4259;fill-opacity:1;stroke-width:0.639229"
         d="m 79.691278,155.04138 -0.375891,-0.26329 v -11.62651 c 0,-8.81732 0.04904,-11.67553 0.202955,-11.82945 0.133475,-0.13347 0.845647,-0.20295 2.08029,-0.20295 1.234644,0 1.946815,0.0694 2.08029,0.20295 0.153917,0.15392 0.202955,3.01213 0.202955,11.82945 v 11.62651 l -0.375891,0.26329 c -0.273025,0.19123 -0.79499,0.26328 -1.907354,0.26328 -1.112364,0 -1.634329,-0.0721 -1.907354,-0.26328 z"
         id="path31" /><path
         style="fill:#2e4259;fill-opacity:1;stroke-width:0.639229"
         d="m 61.556817,154.96641 c -0.331584,-0.33159 -0.338259,-0.56377 -0.338259,-11.7656 0,-7.55373 0.05935,-11.53824 0.17508,-11.75449 0.156518,-0.29245 0.367205,-0.32686 1.987269,-0.32454 0.996704,9.7e-4 1.926351,0.0747 2.065882,0.16278 0.213627,0.13489 0.260424,0.88909 0.296309,4.77531 0.02344,2.53832 0.06149,4.75553 0.08457,4.92714 0.02419,0.1799 0.89408,-1.14498 2.054376,-3.12889 1.106836,-1.8925 2.439318,-4.16394 2.961073,-5.04764 l 0.948646,-1.60673 h 2.112804 2.112805 l 0.04747,0.50739 c 0.03779,0.40394 -0.404558,1.21427 -2.169693,3.97454 -1.219445,1.90692 -2.408173,3.71822 -2.641619,4.02509 -0.238892,0.31403 -0.380467,0.67255 -0.323846,0.82011 0.05533,0.14418 1.365396,3.22972 2.911258,6.85672 1.545861,3.62701 2.810657,6.79106 2.810657,7.03122 0,0.24016 -0.138222,0.53772 -0.307161,0.66125 -0.41181,0.30112 -3.62043,0.31171 -3.994432,0.0132 -0.145673,-0.11627 -1.159435,-2.49465 -2.252805,-5.28528 -1.093368,-2.79064 -2.040948,-5.13289 -2.105733,-5.20501 -0.06479,-0.0722 -0.587732,0.59939 -1.162107,1.49225 l -1.044316,1.62338 v 3.45478 c 0,4.29373 0.08977,4.1313 -2.283244,4.1313 -1.381223,0 -1.654203,-0.0475 -1.944987,-0.33826 z"
         id="path30" /><path
         style="fill:#2e4259;fill-opacity:1;stroke-width:0.639229"
         d="m 43.248576,155.12199 c -0.277373,-0.16156 -0.295976,-0.90854 -0.295976,-11.88464 0,-8.88403 0.04901,-11.76126 0.202955,-11.91521 0.300479,-0.30048 8.381842,-0.2776 9.521977,0.027 2.82021,0.75334 4.569198,2.84161 5.013958,5.98661 0.451701,3.19408 -0.749532,6.11881 -3.054827,7.43784 -0.426375,0.24397 -0.799139,0.46027 -0.828364,0.4807 -0.02922,0.0204 0.207808,0.55866 0.52674,1.19609 1.346653,2.69144 3.500934,7.65194 3.500934,8.06134 0,0.64018 -0.436027,0.79299 -2.262695,0.79299 -1.43376,0 -1.652933,-0.0413 -2.018384,-0.38053 -0.229868,-0.21337 -1.254599,-2.25661 -2.332611,-4.65106 l -1.92264,-4.27051 H 48.324801 47.34996 v 4.37114 c 0,5.26987 0.151074,4.93345 -2.211998,4.92582 -0.876375,-0.003 -1.726599,-0.0827 -1.889386,-0.17754 z m 7.859257,-13.18598 c 1.341585,-0.37259 2.162796,-1.65075 2.160708,-3.36299 -0.0034,-2.78704 -1.831588,-4.07807 -5.133894,-3.62544 l -0.784687,0.10756 v 3.52872 3.52872 l 1.564445,-6.4e-4 c 0.860445,-5.2e-4 1.847488,-0.0795 2.193428,-0.17563 z"
         id="path29" /><path
         style="fill:#2e4259;fill-opacity:1;stroke-width:0.639229"
         d="m 23.737673,155.13899 c -0.196358,-0.0793 -0.398979,-0.25361 -0.450267,-0.38727 -0.05129,-0.13365 0.512653,-2.70868 1.253203,-5.72226 0.740551,-3.01359 1.988888,-8.12758 2.774082,-11.36442 0.785195,-3.23684 1.507182,-6.03381 1.604418,-6.2155 0.163163,-0.30486 0.369903,-0.33034 2.681568,-0.33034 2.174165,0 2.538933,0.039 2.763558,0.29598 0.142328,0.16279 0.617665,1.81814 1.056303,3.67856 0.438637,1.86042 1.665875,6.91913 2.727193,11.24159 1.06132,4.32244 1.929672,7.98286 1.929672,8.13427 0,0.1514 -0.139183,0.40123 -0.309294,0.55518 -0.39783,0.36004 -3.344466,0.40536 -3.818497,0.0587 -0.205005,-0.1499 -0.461509,-0.92282 -0.796017,-2.39861 -0.271449,-1.19758 -0.536604,-2.22049 -0.589231,-2.27312 -0.05262,-0.0526 -1.42468,-0.0959 -3.049006,-0.0961 -2.814423,-3.4e-4 -2.957031,0.0155 -3.032217,0.3379 -0.04339,0.18604 -0.271956,1.2135 -0.507919,2.28324 -0.26447,1.19899 -0.535725,2.02607 -0.707222,2.1564 -0.318064,0.24171 -2.960592,0.27593 -3.530327,0.0457 z m 9.98577,-9.37617 c -0.05644,-0.22489 -0.543915,-2.37495 -1.083275,-4.77791 -0.659087,-2.93637 -1.013883,-4.23037 -1.081991,-3.9462 -0.372776,1.55538 -1.966788,8.81524 -1.966788,8.95765 0,0.11168 0.76865,0.17533 2.117338,0.17533 h 2.117338 z"
         id="path28" /><path
         style="fill:#2e4259;fill-opacity:1;stroke-width:0.639229"
         d="m 155.34348,155.45455 c -2.87286,-0.41841 -4.96909,-2.54286 -5.85093,-5.92969 -0.70235,-2.69746 -0.81049,-8.53659 -0.21678,-11.70522 0.8552,-4.56416 3.15216,-6.87957 7.10127,-7.15826 4.46458,-0.31507 7.36508,1.93389 8.44308,6.54647 0.39085,1.67243 0.53828,7.62322 0.24632,9.94272 -0.50715,4.02917 -1.8276,6.35773 -4.28409,7.5548 -1.74115,0.8485 -3.29111,1.062 -5.43887,0.74918 z m 3.48937,-4.47648 c 0.65256,-0.33744 1.11237,-1.06422 1.45144,-2.29411 0.24832,-0.90074 0.29639,-1.81367 0.29699,-5.64114 6.4e-4,-4.26324 -0.0245,-4.64672 -0.37921,-5.77461 -0.60277,-1.91674 -1.60855,-2.58077 -3.61672,-2.38782 -2.4127,0.23183 -3.16161,2.60688 -2.97379,9.4309 0.11911,4.32804 0.4352,5.55075 1.67408,6.4757 0.8567,0.63962 2.50784,0.72857 3.54721,0.19108 z"
         id="path27" /><path
         style="fill:#2e4259;fill-opacity:1;stroke-width:0.639229"
         d="m 120.47243,155.46598 c -3.26321,-0.57597 -5.30367,-2.65995 -5.57752,-5.69643 -0.15299,-1.69637 -0.10422,-1.73745 2.06285,-1.73745 1.61208,0 1.76569,0.0288 2.00884,0.3759 0.14482,0.20673 0.26329,0.55225 0.26329,0.76781 0,0.65304 0.64327,1.70553 1.22785,2.00897 0.82977,0.4307 2.7761,0.49395 3.49575,0.11359 1.13609,-0.60045 1.56636,-1.71721 1.19565,-3.10325 -0.2537,-0.9485 -1.21546,-1.90044 -2.70883,-2.68111 -2.81218,-1.47012 -4.42295,-2.44528 -5.2143,-3.15678 -2.70675,-2.43361 -2.80829,-7.29392 -0.20654,-9.88674 1.25394,-1.24962 2.92043,-1.8587 5.08561,-1.8587 4.04798,0 6.98204,2.40787 7.23456,5.93712 0.0787,1.09983 0.0651,1.15306 -0.32043,1.24927 -0.22146,0.0553 -1.16207,0.0783 -2.09025,0.051 l -1.68761,-0.0494 -0.14804,-0.50738 c -0.42307,-1.44994 -0.73267,-2.02677 -1.24998,-2.32889 -0.80324,-0.46911 -2.19406,-0.55295 -2.92216,-0.17615 -1.58761,0.82163 -1.55928,3.55915 0.0506,4.88481 0.3309,0.27248 1.61343,1.02818 2.85008,1.67933 4.77052,2.5119 5.99201,4.03858 5.95402,7.44168 -0.0358,3.21111 -1.61912,5.42745 -4.51619,6.32206 -1.26078,0.38932 -3.59834,0.5606 -4.7872,0.35075 z"
         id="path1" /></g><g
       id="g1"
       transform="matrix(0.76572181,0,0,0.76572181,22.202375,17.217878)"><circle
         style="fill:#2e4259;fill-opacity:1;stroke-width:0;stroke-linecap:round"
         id="path2"
         cx="131.82562"
         cy="100.95307"
         r="1.9236352" /><path
         style="fill:#1f1f1f;fill-opacity:1;stroke-width:0.639229"
         d="m 79.807374,121.15807 c -0.520087,-0.1664 -1.281168,-0.53381 -1.691293,-0.81647 -0.410125,-0.28268 -4.778498,-4.61379 -9.707499,-9.62472 -4.929,-5.01091 -12.851568,-13.03033 -17.605706,-17.820923 -4.754139,-4.790582 -8.749462,-8.900416 -8.878496,-9.132973 -0.192205,-0.346404 -0.224186,-1.69134 -0.176954,-7.441687 0.06307,-7.679648 0.07256,-7.755627 1.060382,-8.50314 0.74303,-0.562273 1.371474,-0.714358 4.706236,-1.138927 1.532073,-0.195061 2.813872,-0.382943 2.848441,-0.417513 0.109858,-0.109858 -0.367992,-1.272077 -0.523018,-1.272077 -0.08174,0 -0.874199,0.08557 -1.76103,0.190164 -2.148638,0.253403 -2.619687,0.106233 -3.717831,-1.161562 -1.571864,-1.814699 -1.915394,-2.391489 -1.915394,-3.215953 0,-0.694119 0.172473,-0.997714 2.171469,-3.822312 5.025632,-7.10126 13.24392,-18.925692 19.059638,-27.422916 2.037313,-2.976675 3.98706,-5.719567 4.332773,-6.095317 0.742458,-0.806963 1.794148,-1.363762 2.849832,-1.508792 0.774964,-0.106465 16.865099,-1.232546 40.363266,-2.824857 15.12105,-1.024649 13.78676,-1.095823 15.28884,0.815536 1.23495,1.571441 1.51232,2.093828 1.51232,2.848261 0,0.893106 -0.23353,1.250132 -3.37006,5.152468 -1.46059,1.817196 -7.46767,9.316538 -13.34906,16.665204 -5.88138,7.348665 -10.94611,13.535886 -11.25496,13.749376 -0.335359,0.231829 -1.030584,0.460417 -1.726135,0.567545 -0.64054,0.09866 -1.189254,0.202316 -1.219368,0.230353 -0.0301,0.02806 0.06124,0.275232 0.202962,0.549328 0.297979,0.741406 0.354272,0.422491 1.576913,0.591893 0.73297,0.101556 1.655778,0.239417 2.083288,0.424723 0.67289,0.29166 6.58346,3.977798 27.22681,16.980078 16.70105,10.5192 17.42562,10.990619 17.84812,11.612401 l 0.41784,0.614895 v 6.41882 c 0,6.125674 -0.0159,6.451534 -0.34677,7.135144 -0.50539,1.044 -2.28435,2.25173 -3.33179,2.26196 -0.31138,0.003 -0.38054,0.0983 -0.38054,0.52411 0,0.34283 -0.1595,0.67989 -0.46745,0.98784 -0.4064,0.4064 -1.03697,0.60557 -4.82781,1.52496 -4.56001,1.10594 -5.09461,1.16143 -6.71292,0.69678 -0.7422,-0.2131 -1.07995,-0.1402 -13.61491,2.93837 -7.0696,1.73628 -15.25122,3.73333 -18.181387,4.43786 l -5.327574,1.28097 -0.591952,0.66128 c -0.576583,0.64409 -0.673197,0.68115 -3.720842,1.42734 -1.720892,0.42134 -3.647597,0.87569 -4.281572,1.00965 -1.568876,0.33152 -3.694817,0.29781 -4.866809,-0.0772 z m 11.239197,-5.59046 c 4.10574,-1.01866 11.727039,-2.88784 16.936219,-4.15373 5.20919,-1.26589 13.01027,-3.16675 17.33575,-4.22413 4.32548,-1.05737 9.95748,-2.42998 12.51557,-3.05024 5.02853,-1.21928 5.71084,-1.45355 5.83606,-2.00386 0.0451,-0.19822 0.10136,-2.240823 0.12501,-4.53913 0.0422,-4.10316 0.0369,-4.177285 -0.29524,-4.099537 -0.8184,0.191566 -26.1163,5.834366 -33.31846,7.431827 -4.372,0.96971 -11.830596,2.63334 -16.574671,3.69694 -4.744076,1.06362 -9.215431,2.03286 -9.936344,2.15388 l -1.310752,0.22002 v 1.88482 c 0,1.03664 0.05012,3.38115 0.111365,5.21002 l 0.111366,3.32522 h 0.49957 c 0.274764,0 3.858814,-0.83346 7.964557,-1.8521 z M 79.60855,111.79859 79.56908,106.3466 78.725669,105.94626 C 77.827848,105.5201 77.142932,104.86962 65.785048,93.65646 54.036778,82.0579 46.950088,75.176593 45.108997,73.579646 l -0.972493,-0.843533 v 4.864077 4.864069 l 14.841091,14.872826 c 15.683977,15.717525 19.984455,19.913495 20.409436,19.913495 0.230649,0 0.256399,-0.63376 0.221519,-5.45199 z m 4.973508,-8.23886 c 0.870685,-0.18129 3.828253,-0.82278 6.572376,-1.42552 17.332216,-3.807039 46.431056,-10.155278 49.808566,-10.866295 1.11625,-0.234998 2.10566,-0.503838 2.19867,-0.597413 0.11303,-0.113711 -0.0273,-0.337464 -0.42282,-0.674424 -0.64822,-0.552199 -0.76125,-0.624552 -18.85791,-12.072226 -21.89921,-13.853104 -23.49412,-14.844425 -24.254642,-15.075475 -0.410123,-0.124604 -1.263723,-0.226549 -1.896885,-0.226549 -1.284665,0 -4.596162,0.587777 -5.328419,0.684844 -0.247705,0.03283 -5.499537,0.803888 -11.702164,1.589078 -29.903788,3.785531 -34.242489,4.34873 -34.626886,4.494877 -0.238181,0.09056 -0.413277,0.293303 -0.413277,0.478539 0,0.198659 1.663245,1.92654 4.355078,4.524314 5.876604,5.67126 8.556153,8.278802 17.969983,17.487044 4.418501,4.322002 8.880757,8.683756 9.916125,9.692796 1.226457,1.19527 2.110557,1.91592 2.536939,2.06791 0.922558,0.32886 2.305049,0.30168 4.145266,-0.0815 z m -2.313793,-5.163179 c -0.28285,-0.146043 -2.261661,-1.87477 -4.39736,-3.841604 -2.1357,-1.966825 -7.536281,-6.921766 -12.001293,-11.010969 -12.264958,-11.232652 -12.26187,-11.229686 -12.26187,-11.775337 0,-0.25784 0.133189,-0.58671 0.295976,-0.730831 0.215378,-0.190681 3.911369,-0.772251 13.572622,-2.135669 24.201156,-3.415322 29.081724,-4.081635 29.893046,-4.081123 0.970733,6.19e-4 0.674054,-0.174555 9.364144,5.529047 24.64831,16.177497 25.93993,17.048341 25.99602,17.527053 0.0919,0.784494 1.96793,0.329096 -21.02592,5.103959 -6.97657,1.448738 -15.767069,3.282625 -19.53442,4.075303 -7.356668,1.547893 -9.053757,1.777602 -9.900945,1.340171 z m 22.532075,-7.874194 c 10.77339,-2.14268 19.70215,-3.936641 19.84168,-3.98661 0.1948,-0.06974 0.13158,-0.196032 -0.27221,-0.543869 -0.47205,-0.40665 -25.565298,-17.446874 -26.760649,-18.17252 -0.482969,-0.293189 -0.798339,-0.256957 -15.777926,1.812559 -8.406808,1.161446 -16.464782,2.268929 -17.906609,2.461068 -3.525276,0.469783 -3.720843,0.503751 -3.720843,0.646267 0,0.13007 2.242956,2.140042 14.197037,12.722336 4.041014,3.577288 7.960585,7.053745 8.710155,7.725458 0.794017,0.71154 1.516981,1.22334 1.73212,1.226187 0.203097,0.0029 9.18386,-1.748205 19.957245,-3.890876 z M 83.163074,87.132026 c -0.436281,-0.254117 -0.845613,-1.14812 -0.732334,-1.59946 0.116062,-0.462431 -0.1597,-0.397042 6.778707,-1.607209 5.738784,-1.000933 6.818946,-1.126917 7.327683,-0.854648 0.84848,0.454091 1.1223,1.68022 0.434196,1.944275 -0.453041,0.173851 -12.542517,2.300133 -13.046315,2.294574 -0.256276,-0.0029 -0.599149,-0.08272 -0.761937,-0.177532 z m -4.674717,-4.450707 c -0.825958,-0.457791 -1.114506,-1.526497 -0.483722,-1.791569 0.209299,-0.08795 5.729024,-1.04358 12.266059,-2.123618 l 11.885516,-1.963693 0.54455,0.318035 c 0.69534,0.406094 0.97865,1.124318 0.59488,1.50808 -0.19847,0.198472 -3.500662,0.816874 -12.168596,2.278834 -6.542923,1.103536 -11.97233,2.004531 -12.065351,2.002207 -0.09302,-0.0029 -0.351023,-0.105063 -0.573336,-0.228276 z m -5.750394,-4.566492 c -0.447807,-0.248199 -0.849046,-0.87093 -0.858269,-1.332051 -0.0089,-0.445607 0.42857,-0.563749 4.222237,-1.140192 1.906932,-0.289757 7.298173,-1.130828 11.980534,-1.869048 4.682366,-0.738212 8.852744,-1.342214 9.267514,-1.342214 0.575179,0 0.852642,0.09851 1.169265,0.415142 0.409739,0.409732 0.557963,1.167915 0.263867,1.34968 -0.156631,0.09681 -3.836453,0.707919 -12.27973,2.039312 -2.697612,0.425381 -6.709958,1.07536 -8.916323,1.4444 -2.206366,0.36905 -4.109069,0.668293 -4.228231,0.665 -0.119161,-0.0029 -0.39855,-0.106815 -0.620864,-0.230029 z M 55.172188,65.740178 c 0.53487,-0.06213 0.972493,-0.139698 0.972493,-0.172336 0,-0.03266 -0.130266,-0.332508 -0.289479,-0.666384 -0.223281,-0.468222 -0.368319,-0.588499 -0.634235,-0.525944 -0.189616,0.04462 -0.858485,0.133783 -1.486378,0.19818 -0.627893,0.0644 -1.141622,0.143698 -1.141622,0.176216 0,0.03253 0.130808,0.333428 0.290685,0.668697 0.259036,0.543204 0.346505,0.600044 0.803364,0.522065 0.281973,-0.04813 0.9503,-0.138349 1.485172,-0.200494 z m 5.031595,-0.576681 c 1.080087,-0.154937 11.60997,-1.498659 23.232666,-2.964724 3.243306,-0.409106 5.592005,-0.654392 5.626722,-0.689108 0.03471,-0.03471 -0.124139,-0.278263 -0.31645,-0.616552 l -0.308867,-0.543321 -2.65853,0.295599 c -3.888575,0.432368 -27.509459,3.346592 -27.563511,3.400645 -0.120626,0.120622 0.496313,1.281442 0.679488,1.278508 0.115028,-0.0019 0.703845,-0.07431 1.308482,-0.161047 z m 12.776666,-5.847715 c 12.925856,-1.632283 23.882099,-3.012953 24.347202,-3.068159 0.465109,-0.05521 1.01147,-0.222839 1.214144,-0.372516 0.350969,-0.259196 22.529435,-27.873961 23.700645,-29.510055 l 0.56018,-0.782528 -0.72931,3.29e-4 c -1.02882,4.63e-4 -44.123247,2.710643 -47.355199,2.978137 l -1.299256,0.107533 -6.131856,8.477908 c -3.372522,4.66285 -8.714753,12.054992 -11.871625,16.426983 -3.156871,4.37199 -5.895762,8.120318 -6.086426,8.329614 -0.264107,0.289922 -0.28753,0.380539 -0.09836,0.380539 0.136565,0 10.824001,-1.335502 23.749858,-2.967785 z m -24.68739,-0.426014 c 1.030321,-1.435656 5.107089,-7.138722 9.059485,-12.673476 3.952396,-5.534755 8.57311,-12.003948 10.268254,-14.375986 1.695143,-2.372037 3.27062,-4.481433 3.501059,-4.687543 0.230437,-0.206112 0.703171,-0.44983 1.050516,-0.541595 0.347347,-0.09176 10.335329,-0.857509 22.195515,-1.701653 24.974122,-1.777524 30.123122,-2.163927 30.227602,-2.26841 0.0418,-0.04173 -0.17808,-0.345715 -0.48846,-0.67553 l -0.56435,-0.599664 -2.62151,0.168638 c -1.44182,0.09275 -8.55793,0.549193 -15.81358,1.014314 -30.119967,1.930832 -33.403559,2.17197 -34.147417,2.507695 -0.90967,0.410562 -1.218836,0.772402 -3.484081,4.07768 -3.044696,4.442592 -21.49142,30.658779 -21.858524,31.064977 -0.197789,0.218859 -0.280713,0.458788 -0.204589,0.591952 0.265758,0.464904 0.650308,0.822054 0.825296,0.766505 0.09981,-0.0317 1.024464,-1.232248 2.054784,-2.667904 z m 46.784494,1.597458 c 0.07272,-0.04494 -0.141623,-0.570913 -0.21985,-0.805474 -0.08892,-0.266608 -0.450042,-0.183572 -2.267682,0.08677 l -1.284301,0.191014 0.332227,0.678027 c 0.288921,0.589644 -0.174309,0.468205 1.685126,0.170033 1.056036,-0.156978 1.681755,-0.275413 1.75448,-0.320364 z"
         id="path35" /><circle
         style="fill:#2e4259;fill-opacity:1;stroke-width:0;stroke-linecap:round"
         id="path2-4"
         cx="138.01759"
         cy="99.458237"
         r="1.9236352" /></g></g></svg>
